<svg width="40" height="40" viewBox="0 0 40 40" fill="none" xmlns="http://www.w3.org/2000/svg">
<g clip-path="url(#clip0_218_3749)">
<circle cx="20" cy="20" r="20" fill="#6750A4"/>
<path d="M12.0911 34.56C11.8244 29.8933 11.6644 25.24 11.6111 20.6C11.5578 15.9333 11.5311 11.28 11.5311 6.64L14.6911 6.08V15.92C14.6911 17.4667 15.0378 18.68 15.7311 19.56C16.4244 20.44 17.4244 20.88 18.7311 20.88C19.3711 20.88 20.0378 20.76 20.7311 20.52C21.4244 20.2533 22.0778 19.8533 22.6911 19.32C23.3311 18.7867 23.8244 18.0933 24.1711 17.24L25.0111 17.96C24.5044 19.1067 23.8778 20.08 23.1311 20.88C22.4111 21.6533 21.6244 22.24 20.7711 22.64C19.9444 23.04 19.0778 23.24 18.1711 23.24C17.2911 23.24 16.4511 23.04 15.6511 22.64C14.8778 22.24 14.2778 21.6267 13.8511 20.8L14.3311 20.28C14.3044 22.4933 14.3844 24.76 14.5711 27.08C14.7844 29.4267 15.0511 31.7333 15.3711 34L12.0911 34.56ZM26.2111 23.24C25.5444 23.24 24.9844 23.1067 24.5311 22.84C24.0778 22.5467 23.7311 22.1467 23.4911 21.64C23.2511 21.1067 23.1311 20.4667 23.1311 19.72V6.64L26.2911 6.08V19.24C26.2911 19.8 26.3844 20.2267 26.5711 20.52C26.7844 20.8133 27.0911 20.96 27.4911 20.96C27.8111 20.96 28.1178 20.88 28.4111 20.72C28.7044 20.56 28.9711 20.32 29.2111 20L29.8511 21.32C29.5044 21.88 29.0111 22.3467 28.3711 22.72C27.7311 23.0667 27.0111 23.24 26.2111 23.24Z" fill="#FFFBFE"/>
</g>
<defs>
<clipPath id="clip0_218_3749">
<rect width="40" height="40" fill="white"/>
</clipPath>
</defs>
</svg>